<?xml version="1.0" standalone="no"?>
<!DOCTYPE svg PUBLIC "-//W3C//DTD SVG 20010904//EN"
 "http://www.w3.org/TR/2001/REC-SVG-20010904/DTD/svg10.dtd">
<svg version="1.0" xmlns="http://www.w3.org/2000/svg"
 width="500.000000pt" height="500.000000pt" viewBox="0 0 500.000000 500.000000"
 preserveAspectRatio="xMidYMid meet">

<g transform="translate(0.000000,500.000000) scale(0.100000,-0.100000)"
fill="#000000" stroke="none">
<path d="M2580 4187 c-3 -3 -25 -8 -50 -12 -130 -18 -231 -73 -313 -171 -49
-58 -52 -70 -25 -87 12 -8 29 3 78 51 35 33 75 65 89 70 140 48 167 54 272 58
l112 5 61 -37 c34 -21 87 -62 119 -91 32 -29 76 -62 98 -73 43 -23 136 -48
187 -52 36 -3 42 -24 17 -68 -19 -34 -19 -76 1 -84 9 -3 29 -6 44 -6 21 0 36
-9 55 -34 31 -41 66 -126 72 -178 6 -44 29 -70 44 -47 9 14 13 65 9 129 -3 51
-68 169 -106 192 -29 17 -31 21 -26 68 5 58 -10 84 -44 76 -28 -7 -130 12
-168 31 -16 8 -73 58 -128 112 -101 98 -131 118 -196 126 -20 3 -53 8 -72 11
-71 11 -125 16 -130 11z"/>
<path d="M1904 3786 c-36 -40 -73 -105 -138 -241 -82 -173 -88 -190 -88 -249
0 -80 9 -109 94 -285 71 -148 139 -258 164 -268 17 -6 44 14 44 34 0 9 -24 54
-54 102 -30 47 -57 102 -61 121 -4 19 -11 40 -15 45 -4 6 -10 21 -13 35 -3 14
-14 48 -25 76 -10 28 -22 66 -26 85 -10 57 -10 197 1 211 6 7 19 36 29 63 23
62 29 73 87 161 25 40 60 83 77 97 40 34 41 67 1 67 -22 0 -40 -12 -77 -54z"/>
<path d="M3008 3693 c-26 -6 -22 -30 8 -49 23 -15 25 -21 18 -58 -13 -82 -70
-178 -162 -273 -79 -82 -92 -91 -143 -103 -79 -18 -122 6 -86 49 15 18 53 119
62 169 10 48 -2 88 -31 101 -86 39 -144 -37 -144 -187 0 -51 -4 -65 -27 -92
-45 -53 -60 -63 -110 -77 -94 -24 -171 -11 -192 33 -15 35 -14 45 14 126 30
85 31 108 8 108 -21 0 -88 -118 -98 -173 -13 -67 48 -153 125 -176 72 -21 130
-14 193 24 32 19 64 35 70 35 7 0 23 7 35 16 21 14 24 14 54 -7 20 -14 51 -24
85 -27 52 -4 55 -3 130 54 136 104 199 177 243 280 l19 44 69 -68 c87 -84 135
-122 156 -122 13 0 9 -14 -20 -71 -28 -57 -37 -90 -46 -166 -10 -97 1 -202 24
-230 6 -7 13 -42 15 -77 7 -86 -21 -146 -118 -251 -41 -44 -86 -93 -100 -108
-39 -44 -181 -69 -243 -43 -20 8 -63 18 -94 22 -31 3 -79 10 -106 15 -53 10
-76 1 -76 -31 0 -22 17 -36 53 -45 28 -8 33 -15 18 -30 -29 -31 -69 -138 -63
-167 3 -14 -25 -8 -38 7 -7 9 -43 32 -79 52 -36 21 -94 57 -129 81 -35 24 -83
50 -107 59 -42 14 -44 16 -30 36 23 35 62 148 70 200 5 30 14 51 25 57 19 10
31 42 21 57 -3 5 -31 21 -61 35 -30 14 -65 34 -76 44 -21 19 -57 127 -46 138
11 12 55 6 83 -11 26 -16 31 -16 39 -3 19 30 10 59 -25 85 -45 35 -104 44
-126 18 -24 -26 -40 -84 -41 -142 0 -40 6 -58 34 -96 32 -46 69 -87 101 -112
21 -16 7 -76 -39 -170 l-35 -72 -72 -3 -71 -3 -16 -43 c-13 -34 -14 -57 -7
-118 9 -71 8 -76 -13 -94 -13 -11 -26 -20 -29 -20 -3 0 -21 -13 -39 -29 -32
-29 -57 -86 -88 -200 -8 -30 -24 -69 -35 -87 -11 -18 -25 -61 -31 -96 -6 -35
-17 -75 -24 -90 -8 -14 -16 -68 -19 -120 -2 -51 -7 -138 -11 -193 -5 -86 -4
-103 10 -114 31 -26 43 2 49 117 3 59 8 118 11 132 14 66 18 90 26 155 5 39
18 97 29 129 12 33 21 69 21 82 0 12 15 60 32 106 39 97 91 158 137 158 46 0
94 39 104 85 8 37 4 109 -10 163 l-5 23 33 -23 c19 -13 50 -35 70 -50 19 -15
55 -36 80 -47 24 -11 69 -38 101 -59 31 -22 78 -53 105 -68 26 -16 97 -75 156
-131 60 -57 119 -111 133 -120 38 -24 55 -64 44 -102 -10 -34 -9 -36 14 -131
9 -36 23 -100 31 -142 9 -42 23 -82 32 -89 21 -18 32 -51 48 -139 7 -42 24
-103 37 -135 20 -50 29 -61 56 -69 26 -7 36 -5 53 10 17 15 20 26 15 57 -4 21
-13 48 -20 60 -8 12 -22 54 -31 92 -9 39 -23 85 -31 104 -8 18 -14 54 -14 78
0 34 -9 60 -35 103 -20 32 -45 85 -56 117 -17 50 -18 64 -8 103 9 34 9 59 0
103 -13 61 -12 60 -139 158 -53 40 -53 41 -47 82 10 61 13 76 26 133 l12 51
65 -22 c84 -28 108 -23 263 57 110 57 209 132 209 160 0 6 18 39 40 74 50 80
72 133 73 181 2 62 -12 167 -27 211 -36 101 -23 216 35 318 30 53 30 84 0 84
-9 0 -23 -6 -30 -12 -10 -11 -11 -9 -5 5 8 22 -33 83 -84 123 -67 53 -122 106
-122 120 0 7 -6 19 -14 26 -7 8 -17 24 -20 36 -8 25 -52 50 -78 45z m-389
-309 c-6 -16 -13 -24 -16 -17 -5 13 16 58 23 50 3 -2 -1 -17 -7 -33z"/>
<path d="M3066 3094 c-18 -18 -21 -66 -6 -95 15 -28 54 -24 68 6 32 71 -14
137 -62 89z"/>
<path d="M2570 3043 c-57 -20 -48 -133 11 -133 49 0 76 72 43 118 -15 22 -26
25 -54 15z"/>
<path d="M2967 2993 c-4 -3 -7 -24 -7 -45 0 -60 67 -117 84 -72 4 10 -1 25 -9
34 -9 10 -20 34 -26 54 -9 33 -26 45 -42 29z"/>
<path d="M2988 2684 c-9 -9 -34 -17 -59 -18 -37 -1 -44 -4 -47 -23 -3 -17 3
-24 23 -29 57 -14 135 25 135 68 0 23 -30 24 -52 2z"/>
</g>
</svg>
